<?xml version="1.0" encoding="UTF-8"?>
<svg id="Vrstva_1" data-name="Vrstva 1" xmlns="http://www.w3.org/2000/svg" viewBox="0 0 460.8 259.2">
  <defs>
    <style>
      .cls-1 {
        fill: #fefafa;
      }

      .cls-2 {
        fill: #fefbfc;
      }

      .cls-3 {
        fill: #ec1c24;
      }

      .cls-4 {
        fill: #fefbfb;
      }

      .cls-5 {
        fill: #fefefe;
      }
    </style>
  </defs>
  <path class="cls-3" d="M399.15,174.08v27.33H52.53v-27.33h346.62ZM310.58,197.05c3.04,1.04,6.38.97,9.3-.03,2.43-.84,3.76-2.95,3.73-5.43s-1.51-4.31-3.9-5.02c-3.11-.93-6.58-.27-6.3-2.07.1-.61.59-.8,1.29-.87,1.24-.12,2.39.23,2.53,1.65h5.8c.26-2.51-1.24-4.72-3.67-5.49-2.81-.89-5.91-.87-8.66.1-2.36.83-3.64,2.81-3.65,5.22s1.4,4.33,3.77,5.12c3.04,1.02,6.68.41,6.6,1.96-.07,1.44-2.17,1.11-3.36,1.07-.95-.03-1.13-.87-1.39-1.54-1.72-.19-3.73-.06-5.5-.05-.35,2.41.99,4.55,3.42,5.38ZM345.49,197.15l.08-9.75c0-1.03,1.28-1.69,2.13-1.94,1.18-.34,2.24-.09,3.52.02l.09-6.08c-2.52-.74-5.13.09-6.5,2.35l-1.18-2.07h-4.43s0,17.57,0,17.57c2.19-.03,4.25.18,6.29-.11ZM379.77,195.32c4.11-3.61,4.05-10.09.07-13.65-2.49-2.23-5.78-2.83-9-2.34-4.71.71-7.99,4.44-8.04,9.03s3.12,8.41,7.83,9.21c3.21.54,6.54.04,9.15-2.24ZM333.92,197.25l-.03-6.31h-6.21s0,6.33,0,6.33l6.24-.02ZM358.62,197.25l-.03-6.31h-6.21s0,6.33,0,6.33l6.24-.02ZM393.41,197.25l-.03-6.31h-6.21s0,6.33,0,6.33l6.24-.02Z"/>
  <polygon class="cls-5" points="377.34 165.94 377.27 132.4 358.39 165.92 344.91 165.92 326.05 132.93 325.98 165.93 306.08 165.92 306.08 87.28 322.39 87.27 352.34 139.68 380.13 87.26 397.24 87.29 397.24 165.92 377.34 165.94"/>
  <path class="cls-5" d="M121.71,163.25c-8.36,3.97-17.15,5.23-26.16,4.72-10.47-.59-20.49-4.04-28.68-10.59-.88-.7-1.49-1.32-2.31-2.09-6.96-6.51-11.42-15.33-12.17-24.91-.65-8.27.63-15.53,4.64-22.83s9.81-12.59,16.9-16.4c6.75-3.63,14.01-5.48,21.63-5.94,15.4-.93,30.63,3.86,40.81,15.84,5.48,6.46,8.67,14.42,9.04,22.89.26,1.85.28,3.45,0,5.27-.64,15.12-10.13,27.59-23.68,34.02ZM116.98,142.13c4.17-3.75,6.54-8.74,6.83-14.32.33-6.48-2-12.41-6.83-16.75-5.58-5.02-13.05-6.76-20.46-6.19-5.8.45-11.47,2.33-15.83,6.18-5.08,4.5-7.31,10.46-6.72,17.13.8,9.02,6.77,15.72,15.2,18.63,9.06,3.13,20.43,1.95,27.81-4.67Z"/>
  <path class="cls-5" d="M228.18,105.45l-13.45,13.25c-1.31.92-2.17,2.12-3.45,3.27l35.62,43.87-26.09.13-23.8-29.93-6.54,6.38-5.76,5.6v17.9s-21.6,0-21.6,0v-78.64s21.59,0,21.59,0v36.04c1.71-1.62,3.19-3.21,4.81-4.87l10.77-11.02,10.56-10.79,9.2-9.35h25.56c.32-.01.76.2.68.38-1.57,1.64-3.14,3.09-4.76,4.67l-13.36,13.11Z"/>
  <rect class="cls-5" x="263.38" y="87.28" width="21.59" height="78.65"/>
  <ellipse class="cls-3" cx="272.86" cy="62.46" rx="21.3" ry="21.29"/>
  <path class="cls-2" d="M379.77,195.32c-2.6,2.28-5.94,2.78-9.15,2.24-4.71-.79-7.88-4.63-7.83-9.21s3.33-8.32,8.04-9.03c3.22-.49,6.51.11,9,2.34,3.98,3.56,4.04,10.04-.07,13.65ZM376.36,188.35c-.05-2.29-1.65-3.85-3.7-3.77s-3.38,1.79-3.39,3.89,1.46,3.94,3.63,3.89c2.03-.04,3.52-1.72,3.46-4.01Z"/>
  <path class="cls-1" d="M310.58,197.05c-2.42-.83-3.77-2.98-3.42-5.38,1.77,0,3.78-.14,5.5.05.26.67.44,1.5,1.39,1.54,1.19.04,3.28.37,3.36-1.07.08-1.54-3.56-.94-6.6-1.96-2.37-.8-3.78-2.63-3.77-5.12s1.29-4.39,3.65-5.22c2.75-.96,5.85-.98,8.66-.1,2.43.77,3.93,2.98,3.67,5.48h-5.8c-.14-1.4-1.29-1.76-2.53-1.63-.7.07-1.19.26-1.29.87-.28,1.8,3.18,1.14,6.3,2.07,2.39.71,3.88,2.52,3.9,5.02s-1.3,4.59-3.73,5.43c-2.92,1-6.26,1.07-9.3.03Z"/>
  <path class="cls-4" d="M345.49,197.15c-2.05.3-4.1.08-6.29.11v-17.58s4.43,0,4.43,0l1.18,2.07c1.37-2.27,3.98-3.1,6.5-2.35l-.09,6.08c-1.28-.11-2.34-.36-3.52-.02-.86.25-2.13.91-2.13,1.94l-.08,9.75Z"/>
  <polygon class="cls-1" points="333.92 197.25 327.67 197.27 327.68 190.94 333.88 190.94 333.92 197.25"/>
  <polygon class="cls-1" points="358.62 197.25 352.38 197.27 352.38 190.94 358.59 190.94 358.62 197.25"/>
  <polygon class="cls-1" points="393.41 197.25 387.16 197.27 387.16 190.94 393.37 190.94 393.41 197.25"/>
  <path class="cls-3" d="M376.36,188.35c.05,2.29-1.44,3.96-3.46,4.01-2.17.05-3.63-1.7-3.63-3.89s1.34-3.81,3.39-3.89,3.65,1.48,3.7,3.77Z"/>
</svg>